<svg xmlns="http://www.w3.org/2000/svg" xmlns:xlink="http://www.w3.org/1999/xlink" width="71.441" height="298" viewBox="0 0 71.441 298">
  <defs>
    <filter id="Path_92" x="0" y="0" width="71.441" height="298" filterUnits="userSpaceOnUse">
      <feOffset dx="5" dy="7" input="SourceAlpha"/>
      <feGaussianBlur stdDeviation="3.5" result="blur"/>
      <feFlood flood-color="#5eb6e1" flood-opacity="0.071"/>
      <feComposite operator="in" in2="blur"/>
      <feComposite in="SourceGraphic"/>
    </filter>
  </defs>
  <g id="Group_108" data-name="Group 108" transform="translate(5.5 -436.5)">
    <g id="Group_107" data-name="Group 107" transform="translate(0 440)">
      <g id="Group_106" data-name="Group 106">
        <g transform="matrix(1, 0, 0, 1, -5.5, -3.5)" filter="url(#Path_92)">
          <path id="Path_92-2" data-name="Path 92" d="M0,0H50.441V277H0Z" transform="translate(5.5 3.5)" fill="#f6f7fb"/>
        </g>
        <g id="Group_4" data-name="Group 4" transform="translate(17.108 27)">
          <g id="Facebook" transform="translate(4.569 68)">
            <path id="Path_1" data-name="Path 1" d="M85.746,16.956V9.231h2.638l.377-3.014H85.746V4.333c0-.848.283-1.507,1.507-1.507h1.6V.094C88.478.094,87.536,0,86.5,0a3.636,3.636,0,0,0-3.862,3.956V6.217H80V9.231h2.638v7.724Z" transform="translate(-80)" fill="#28373b" fill-rule="evenodd"/>
          </g>
          <g id="Twitter" transform="translate(0 140)">
            <path id="Path_2" data-name="Path 2" d="M43.463,15.992A9.973,9.973,0,0,0,53.525,5.929V5.45A7.79,7.79,0,0,0,55.25,3.629a7.956,7.956,0,0,1-2.013.575,3.729,3.729,0,0,0,1.533-1.917,8.79,8.79,0,0,1-2.2.863A3.423,3.423,0,0,0,49.979,2a3.6,3.6,0,0,0-3.546,3.546,1.868,1.868,0,0,0,.1.767,9.908,9.908,0,0,1-7.283-3.738A3.67,3.67,0,0,0,38.767,4.4,3.808,3.808,0,0,0,40.3,7.367a3.231,3.231,0,0,1-1.629-.479h0a3.5,3.5,0,0,0,2.875,3.45,2.954,2.954,0,0,1-.958.1,1.631,1.631,0,0,1-.671-.1,3.631,3.631,0,0,0,3.354,2.492,7.236,7.236,0,0,1-4.408,1.533,2.653,2.653,0,0,1-.863-.1,9.046,9.046,0,0,0,5.463,1.725" transform="translate(-38 -2)" fill="#28373b" fill-rule="evenodd"/>
          </g>
          <g id="web">
            <path id="Path_4" data-name="Path 4" d="M2.653,2.653A8.028,8.028,0,0,1,8.843,0a8.028,8.028,0,0,1,6.19,2.653,8.028,8.028,0,0,1,2.653,6.19,8.028,8.028,0,0,1-2.653,6.19,8.028,8.028,0,0,1-6.19,2.653,8.028,8.028,0,0,1-6.19-2.653A8.825,8.825,0,0,1,0,8.843,8.028,8.028,0,0,1,2.653,2.653Zm7.369,13.264a3.621,3.621,0,0,0,2.211-1.326A6.437,6.437,0,0,0,13.264,11.5a2.441,2.441,0,0,0-.737-1.769,2.594,2.594,0,0,0-1.916-.884H9.138a4.3,4.3,0,0,1-1.326-.295,1.338,1.338,0,0,1-.442-1.032.766.766,0,0,1,.295-.59,1.117,1.117,0,0,1,.59-.295,1.006,1.006,0,0,1,.737.442c.295.147.442.295.59.295a.886.886,0,0,0,.59-.147.886.886,0,0,0,.147-.59A2.345,2.345,0,0,0,9.58,5.158a6.1,6.1,0,0,0,.737-2.8.317.317,0,0,0-.295-.295,4.556,4.556,0,0,0-1.179-.295A7.372,7.372,0,0,0,5.011,2.948,3.71,3.71,0,0,0,3.685,5.9,3.774,3.774,0,0,0,4.864,8.7a4.026,4.026,0,0,0,2.8,1.179h0v.59a1.892,1.892,0,0,0,.59,1.474,2.146,2.146,0,0,0,1.326.884v2.653c0,.147,0,.147.147.295S9.875,15.917,10.022,15.917Z" fill="#28373b"/>
          </g>
          <g id="Instagram" transform="translate(0.571 205)">
            <path id="Path_3" data-name="Path 3" d="M8.478,1.507a26,26,0,0,1,3.391.094,4.369,4.369,0,0,1,1.6.283,3.308,3.308,0,0,1,1.6,1.6,4.369,4.369,0,0,1,.283,1.6c0,.848.094,1.13.094,3.391a25.994,25.994,0,0,1-.094,3.391,4.369,4.369,0,0,1-.283,1.6,3.308,3.308,0,0,1-1.6,1.6,4.369,4.369,0,0,1-1.6.283c-.848,0-1.13.094-3.391.094a25.994,25.994,0,0,1-3.391-.094,4.369,4.369,0,0,1-1.6-.283,3.308,3.308,0,0,1-1.6-1.6,4.369,4.369,0,0,1-.283-1.6c0-.848-.094-1.13-.094-3.391A26,26,0,0,1,1.6,5.087a4.369,4.369,0,0,1,.283-1.6,3.383,3.383,0,0,1,.659-.942,1.593,1.593,0,0,1,.942-.659,4.369,4.369,0,0,1,1.6-.283,26,26,0,0,1,3.391-.094M8.478,0A27.833,27.833,0,0,0,4.992.094,5.815,5.815,0,0,0,2.92.471a3.688,3.688,0,0,0-1.507.942A3.688,3.688,0,0,0,.471,2.92,4.292,4.292,0,0,0,.094,4.992,27.833,27.833,0,0,0,0,8.478a27.833,27.833,0,0,0,.094,3.485,5.815,5.815,0,0,0,.377,2.072,3.688,3.688,0,0,0,.942,1.507,3.688,3.688,0,0,0,1.507.942,5.815,5.815,0,0,0,2.072.377,27.832,27.832,0,0,0,3.485.094,27.832,27.832,0,0,0,3.485-.094,5.815,5.815,0,0,0,2.072-.377,3.952,3.952,0,0,0,2.449-2.449,5.815,5.815,0,0,0,.377-2.072c0-.942.094-1.225.094-3.485a27.832,27.832,0,0,0-.094-3.485,5.815,5.815,0,0,0-.377-2.072,3.688,3.688,0,0,0-.942-1.507A3.688,3.688,0,0,0,14.035.471,5.815,5.815,0,0,0,11.963.094,27.833,27.833,0,0,0,8.478,0m0,4.145A4.263,4.263,0,0,0,4.145,8.478,4.333,4.333,0,1,0,8.478,4.145m0,7.159A2.775,2.775,0,0,1,5.652,8.478,2.775,2.775,0,0,1,8.478,5.652,2.775,2.775,0,0,1,11.3,8.478,2.775,2.775,0,0,1,8.478,11.3M13,2.92a1.036,1.036,0,1,0,1.036,1.036A1.045,1.045,0,0,0,13,2.92" fill="#28373b" fill-rule="evenodd"/>
          </g>
        </g>
      </g>
      <line id="Line_4" data-name="Line 4" x2="50.441" transform="translate(0.286 69.5)" fill="none" stroke="#5eb6e1" stroke-width="1"/>
      <line id="Line_5" data-name="Line 5" x2="50.441" transform="translate(0.286 138.5)" fill="none" stroke="#5eb6e1" stroke-width="1"/>
      <line id="Line_6" data-name="Line 6" x2="50.441" transform="translate(0.286 207.5)" fill="none" stroke="#5eb6e1" stroke-width="1"/>
    </g>
    <line id="Line_8" data-name="Line 8" x2="50.441" transform="translate(0.5 440.5)" fill="none" stroke="#5eb6e1" stroke-width="1"/>
  </g>
</svg>
